<svg width="249" height="180" viewBox="0 0 249 180" fill="none" xmlns="http://www.w3.org/2000/svg">
<g clip-path="url(#clip0_405_2238)">
<path d="M203.17 159.63H202.93C202.77 159.63 202.62 159.59 202.48 159.51C202.38 159.45 202.31 159.38 202.27 159.3C202.23 159.19 202.21 158.97 202.21 158.63V154.31C202.21 153.91 202.25 153.66 202.33 153.55C202.45 153.39 202.65 153.31 202.92 153.31H203.16V153.13H200.31V153.31H200.55C200.71 153.31 200.86 153.35 201 153.43C201.1 153.49 201.17 153.56 201.2 153.64C201.24 153.75 201.26 153.97 201.26 154.31V158.63C201.26 159.03 201.22 159.28 201.14 159.39C201.02 159.55 200.82 159.63 200.54 159.63H200.3V159.81H203.15V159.63H203.17ZM150.12 174.53L144.96 163.35H140.93V163.74C141.51 163.74 141.93 163.81 142.19 163.95C142.45 164.09 142.63 164.26 142.73 164.46C142.87 164.74 142.94 165.2 142.94 165.83V175.17C142.94 175.97 142.86 176.48 142.71 176.71C142.46 177.08 142.03 177.26 141.43 177.26H140.93V177.65H145.88V177.26H145.38C144.82 177.26 144.41 177.11 144.15 176.82C143.96 176.6 143.87 176.05 143.87 175.18V165.63L149.37 177.65H149.72L155.21 165.63V175.18C155.21 175.98 155.13 176.49 154.98 176.72C154.73 177.09 154.31 177.27 153.7 177.27H153.2V177.66H159.24V177.27H158.75C158.19 177.27 157.78 177.12 157.52 176.83C157.32 176.61 157.23 176.06 157.23 175.19V165.85C157.23 165.05 157.31 164.54 157.46 164.31C157.71 163.94 158.14 163.76 158.75 163.76H159.24V163.37H155.21L150.12 174.53ZM172.55 159.63H172.29C172.04 159.63 171.85 159.56 171.73 159.41C171.64 159.31 171.59 159.05 171.59 158.63V156.69C171.64 156.69 171.69 156.7 171.74 156.7C171.79 156.7 171.83 156.7 171.88 156.7C171.98 156.7 172.12 156.7 172.29 156.69L174.54 159.81H176.32V159.63C175.96 159.59 175.66 159.5 175.44 159.35C175.21 159.21 174.94 158.91 174.63 158.47L173.26 156.55C173.82 156.43 174.23 156.21 174.5 155.91C174.77 155.61 174.9 155.25 174.9 154.84C174.9 154.46 174.78 154.12 174.55 153.85C174.32 153.57 174.03 153.38 173.7 153.28C173.36 153.18 172.84 153.12 172.14 153.12H169.72V153.3H169.97C170.22 153.3 170.41 153.37 170.54 153.52C170.63 153.62 170.68 153.88 170.68 154.3V158.62C170.68 159 170.65 159.24 170.58 159.34C170.46 159.52 170.26 159.62 169.98 159.62H169.73V159.8H172.58V159.63H172.55ZM171.6 153.6C171.92 153.54 172.18 153.51 172.37 153.51C172.8 153.51 173.14 153.64 173.4 153.9C173.66 154.16 173.79 154.5 173.79 154.92C173.79 155.35 173.63 155.7 173.31 155.97C172.99 156.24 172.51 156.38 171.87 156.38C171.84 156.38 171.8 156.38 171.76 156.38C171.71 156.38 171.66 156.38 171.6 156.38V153.6ZM188.29 156.13C188.53 156.32 188.94 156.58 189.5 156.9C190.07 157.22 190.42 157.43 190.55 157.53C190.74 157.67 190.88 157.83 190.97 158C191.06 158.17 191.11 158.33 191.11 158.5C191.11 158.8 190.99 159.05 190.75 159.27C190.51 159.49 190.19 159.6 189.78 159.6C189.43 159.6 189.1 159.52 188.81 159.36C188.51 159.2 188.29 159 188.15 158.77C188.01 158.53 187.89 158.17 187.81 157.69H187.63V159.98H187.81C187.83 159.83 187.87 159.72 187.92 159.67C187.97 159.62 188.03 159.6 188.11 159.6C188.2 159.6 188.4 159.65 188.72 159.76C189.04 159.87 189.25 159.92 189.35 159.94C189.52 159.97 189.7 159.98 189.89 159.98C190.51 159.98 191.01 159.8 191.4 159.43C191.79 159.06 191.99 158.63 191.99 158.12C191.99 157.85 191.93 157.6 191.81 157.36C191.69 157.12 191.51 156.91 191.28 156.73C191.05 156.55 190.63 156.29 190.01 155.96C189.25 155.55 188.76 155.22 188.56 154.97C188.42 154.8 188.35 154.62 188.35 154.41C188.35 154.14 188.46 153.91 188.68 153.7C188.9 153.49 189.18 153.39 189.52 153.39C189.82 153.39 190.11 153.47 190.39 153.62C190.67 153.77 190.89 153.98 191.04 154.25C191.19 154.51 191.3 154.87 191.36 155.31H191.54V153H191.36C191.33 153.15 191.28 153.26 191.23 153.31C191.18 153.36 191.11 153.39 191.02 153.39C190.94 153.39 190.82 153.35 190.63 153.27C190.23 153.1 189.86 153.01 189.51 153.01C188.94 153.01 188.48 153.18 188.11 153.53C187.74 153.88 187.56 154.29 187.56 154.77C187.56 155.05 187.62 155.3 187.75 155.53C187.87 155.72 188.05 155.93 188.29 156.13ZM176.94 153.98C177.06 153.8 177.21 153.68 177.38 153.62C177.51 153.57 177.73 153.55 178.04 153.55H178.84V158.66C178.84 159.03 178.8 159.27 178.73 159.38C178.61 159.55 178.41 159.64 178.13 159.64H177.89V159.82H180.71V159.64H180.48C180.22 159.64 180.03 159.57 179.91 159.43C179.82 159.33 179.78 159.07 179.78 158.66V153.55H180.72C180.99 153.55 181.22 153.6 181.39 153.69C181.56 153.78 181.69 153.92 181.79 154.11C181.85 154.23 181.9 154.43 181.94 154.7H182.13L182.06 153.13H176.63L176.55 154.7H176.74C176.75 154.39 176.82 154.15 176.94 153.98ZM208.35 160.2C209.09 160.2 209.72 160.03 210.26 159.7C210.8 159.37 211.26 158.84 211.67 158.13L211.49 158.01C211.01 158.67 210.58 159.12 210.18 159.34C209.78 159.56 209.32 159.68 208.8 159.68C208.2 159.68 207.67 159.54 207.2 159.25C206.73 158.97 206.38 158.56 206.15 158.02C205.92 157.49 205.8 156.86 205.8 156.13C205.8 155.25 205.92 154.51 206.17 153.92C206.42 153.33 206.75 152.9 207.18 152.62C207.61 152.35 208.09 152.21 208.62 152.21C209.25 152.21 209.8 152.39 210.25 152.75C210.7 153.11 211.05 153.7 211.3 154.52H211.48L211.3 151.79H211.09C211.05 151.98 210.97 152.13 210.87 152.23C210.79 152.31 210.7 152.34 210.59 152.34C210.52 152.34 210.4 152.3 210.24 152.21C209.68 151.93 209.11 151.78 208.53 151.78C207.79 151.78 207.1 151.96 206.47 152.33C205.84 152.7 205.35 153.22 204.99 153.89C204.63 154.56 204.45 155.3 204.45 156.1C204.45 157.1 204.72 157.96 205.26 158.7C206 159.71 207.02 160.2 208.35 160.2ZM196.3 166.79H196.69C196.95 166.79 197.2 166.86 197.44 166.99C197.61 167.09 197.72 167.21 197.78 167.34C197.85 167.52 197.89 167.89 197.89 168.46V175.67C197.89 176.34 197.82 176.76 197.69 176.94C197.48 177.21 197.15 177.34 196.69 177.34H196.3V177.64H201.06V177.34H200.66C200.4 177.34 200.15 177.27 199.91 177.14C199.74 177.04 199.62 176.92 199.57 176.79C199.5 176.61 199.46 176.24 199.46 175.67V168.46C199.46 167.79 199.53 167.37 199.66 167.19C199.87 166.92 200.2 166.79 200.65 166.79H201.05V166.49H196.29V166.79H196.3ZM207.94 166.23C206.49 166.23 205.24 166.72 204.2 167.69C203 168.81 202.4 170.25 202.4 172.03C202.4 173.76 202.92 175.18 203.96 176.27C205 177.36 206.29 177.91 207.81 177.91C209.32 177.91 210.61 177.35 211.68 176.23C212.75 175.11 213.28 173.7 213.28 172.01C213.28 170.36 212.75 168.99 211.69 167.89C210.63 166.78 209.38 166.23 207.94 166.23ZM210.38 176.09C209.7 176.91 208.84 177.32 207.79 177.32C206.81 177.32 206.03 176.95 205.43 176.2C204.65 175.22 204.27 173.82 204.27 172C204.27 170.22 204.64 168.87 205.39 167.95C205.99 167.21 206.79 166.84 207.78 166.84C208.84 166.84 209.67 167.21 210.27 167.96C211.02 168.9 211.39 170.32 211.39 172.23C211.4 173.98 211.06 175.27 210.38 176.09ZM195.62 159.37C195.5 159.54 195.3 159.63 195.02 159.63H194.78V159.81H197.6V159.63H197.37C197.11 159.63 196.92 159.56 196.8 159.42C196.71 159.32 196.67 159.06 196.67 158.65V153.54H197.61C197.88 153.54 198.11 153.59 198.28 153.68C198.45 153.77 198.58 153.91 198.68 154.1C198.74 154.22 198.79 154.42 198.83 154.69H199.02L198.95 153.12H193.52L193.44 154.69H193.63C193.65 154.39 193.72 154.15 193.85 153.97C193.97 153.79 194.12 153.67 194.29 153.61C194.42 153.56 194.64 153.54 194.95 153.54H195.75V158.65C195.73 159.03 195.69 159.27 195.62 159.37ZM162.76 159.58C162.35 159.55 162.08 159.49 161.96 159.39C161.84 159.29 161.77 159.18 161.77 159.05C161.77 158.89 161.84 158.64 161.98 158.31L162.56 156.96H165.86L166.38 158.19C166.55 158.59 166.63 158.88 166.63 159.07C166.63 159.21 166.57 159.33 166.45 159.42C166.33 159.52 166.1 159.57 165.76 159.59V159.82H169.12V159.59C168.77 159.57 168.5 159.47 168.31 159.3C168.12 159.13 167.9 158.76 167.66 158.19L164.69 151.07H164.47L161.47 158.11C161.21 158.73 160.97 159.14 160.76 159.34C160.66 159.44 160.42 159.52 160.07 159.59V159.82H162.75V159.58H162.76ZM164.24 153.02L165.69 156.48H162.76L164.24 153.02ZM193.46 172.46C193.08 172.16 192.37 171.73 191.33 171.17C190.06 170.48 189.25 169.94 188.91 169.52C188.67 169.24 188.56 168.93 188.56 168.59C188.56 168.15 188.75 167.75 189.12 167.4C189.49 167.05 189.96 166.88 190.53 166.88C191.03 166.88 191.52 167.01 191.99 167.27C192.46 167.53 192.82 167.88 193.08 168.31C193.33 168.75 193.51 169.34 193.61 170.08H193.91V166.22H193.61C193.56 166.48 193.48 166.65 193.39 166.73C193.3 166.81 193.18 166.86 193.04 166.86C192.91 166.86 192.7 166.79 192.39 166.65C191.73 166.36 191.1 166.21 190.51 166.21C189.57 166.21 188.79 166.5 188.18 167.08C187.57 167.66 187.26 168.35 187.26 169.15C187.26 169.61 187.36 170.03 187.57 170.42C187.78 170.8 188.08 171.16 188.48 171.47C188.88 171.79 189.56 172.21 190.51 172.75C191.46 173.28 192.04 173.63 192.26 173.8C192.58 174.04 192.81 174.3 192.96 174.58C193.11 174.86 193.19 175.14 193.19 175.41C193.19 175.9 192.99 176.33 192.6 176.69C192.2 177.05 191.66 177.23 190.98 177.23C190.39 177.23 189.85 177.1 189.35 176.84C188.86 176.58 188.49 176.25 188.25 175.85C188.01 175.45 187.82 174.85 187.68 174.05H187.38V177.88H187.68C187.72 177.62 187.78 177.45 187.86 177.37C187.94 177.29 188.05 177.25 188.18 177.25C188.32 177.25 188.66 177.34 189.19 177.51C189.72 177.68 190.07 177.78 190.24 177.81C190.52 177.86 190.83 177.88 191.15 177.88C192.18 177.88 193.02 177.57 193.67 176.96C194.32 176.35 194.65 175.62 194.65 174.78C194.65 174.34 194.55 173.91 194.34 173.5C194.13 173.12 193.84 172.76 193.46 172.46ZM224.52 163.57V163.96H225.01C225.57 163.96 225.98 164.11 226.24 164.4C226.44 164.62 226.53 165.17 226.53 166.04V174.28L217.83 163.56H213.97V163.95C214.38 163.95 214.69 163.98 214.89 164.04C215.3 164.17 215.62 164.32 215.83 164.47C216.04 164.62 216.36 164.94 216.77 165.43V175.37C216.77 176.17 216.69 176.68 216.54 176.91C216.29 177.28 215.86 177.46 215.25 177.46H214.76V177.85H219.71V177.46H219.21C218.66 177.46 218.25 177.31 217.98 177.02C217.79 176.8 217.7 176.25 217.7 175.38V166.58L227.08 178.09H227.46V166.05C227.46 165.25 227.54 164.74 227.69 164.51C227.94 164.14 228.37 163.96 228.97 163.96H229.47V163.57H224.52ZM183.23 153.31H183.47C183.63 153.31 183.78 153.35 183.92 153.43C184.02 153.49 184.09 153.56 184.12 153.64C184.16 153.75 184.18 153.97 184.18 154.31V158.63C184.18 159.03 184.14 159.28 184.06 159.39C183.94 159.55 183.74 159.63 183.46 159.63H183.22V159.81H186.07V159.63H185.83C185.67 159.63 185.52 159.59 185.38 159.51C185.28 159.45 185.21 159.38 185.17 159.3C185.13 159.19 185.11 158.97 185.11 158.63V154.31C185.11 153.91 185.15 153.66 185.23 153.55C185.35 153.39 185.55 153.31 185.82 153.31H186.06V153.13H183.21V153.31H183.23ZM170.99 175.51L167.12 166.23H166.83L162.92 175.41C162.58 176.22 162.27 176.75 161.99 177.01C161.85 177.14 161.55 177.25 161.09 177.33V177.63H164.59V177.33C164.05 177.29 163.71 177.21 163.55 177.08C163.39 176.95 163.31 176.8 163.31 176.63C163.31 176.42 163.4 176.09 163.59 175.66L164.34 173.9H168.64L169.31 175.5C169.53 176.02 169.64 176.4 169.64 176.64C169.64 176.82 169.56 176.97 169.41 177.1C169.25 177.23 168.96 177.3 168.51 177.32V177.62H172.89V177.32C172.44 177.29 172.08 177.17 171.83 176.95C171.58 176.74 171.3 176.26 170.99 175.51ZM164.6 173.3L166.53 168.79L168.41 173.3H164.6ZM181.77 166.79H182.15C182.59 166.79 182.91 166.91 183.11 167.14C183.26 167.31 183.34 167.74 183.34 168.42V174.85L176.55 166.48H173.53V166.78C173.85 166.78 174.09 166.8 174.25 166.85C174.57 166.95 174.82 167.07 174.98 167.19C175.15 167.31 175.39 167.56 175.71 167.94V175.7C175.71 176.33 175.65 176.73 175.53 176.9C175.33 177.19 175 177.33 174.52 177.33H174.13V177.63H178V177.33H177.61C177.18 177.33 176.86 177.21 176.65 176.98C176.5 176.81 176.43 176.38 176.43 175.7V168.83L183.75 177.81H184.04V168.41C184.04 167.78 184.1 167.38 184.22 167.21C184.42 166.92 184.75 166.78 185.22 166.78H185.61V166.48H181.74V166.79H181.77Z" fill="white"/>
<path d="M3.30039 147.9H1.40039V179.55H3.30039V147.9Z" fill="white"/>
<path d="M247.711 147.9H245.811V179.55H247.711V147.9Z" fill="white"/>
<path d="M31.7509 162.15C31.7109 162.81 31.6609 163 31.5509 163.5C30.1009 168.73 26.9509 173.58 20.7109 176.36L20.4609 175.98C24.6209 172.86 26.8909 168.32 27.8609 163.38H21.6709L21.1809 162.15H27.6709H29.5009H31.7509ZM47.0509 160.36C47.0509 160.36 46.8009 160.62 46.3709 160.94C44.4509 162.42 42.9209 163.29 40.0209 164.67C42.7009 168.92 46.2009 171.16 50.0109 172.49C50.0109 172.49 47.9709 174.79 46.5309 176.27C41.6109 172.99 39.0809 168.77 37.4709 159.98V174.6C37.4709 177.21 34.7909 178.46 32.3709 177.49C31.3109 177.06 30.0109 176.32 28.8409 175.3L28.9809 174.77C29.0509 174.89 32.2809 175.34 33.0409 174.97C33.5609 174.71 33.6909 174.1 33.6909 173.63V158H26.3709L25.8809 156.8H33.3809H37.4809L37.4709 158.35C37.9709 160.56 38.7009 162.41 39.6109 164.02C41.5609 161.78 42.3409 159.78 43.3809 157.83L47.0509 160.36ZM29.9109 149.52C42.5409 149.02 40.6209 156.61 37.0009 155.13C35.9609 153.74 33.2809 151.44 29.8209 149.9L29.9109 149.52Z" fill="white"/>
<path d="M75.3207 156.979C75.3207 156.979 75.1107 157.349 74.8507 157.869C76.6807 160.769 80.4307 163.339 83.5507 164.669C83.5507 164.669 82.0907 167.159 81.4407 168.339C81.2507 168.179 80.0507 167.119 80.0507 167.119L80.0607 168.309V177.859C80.0307 178.079 78.3007 178.809 77.1607 178.809H76.5307V176.379H70.5707V177.859C70.5707 178.169 69.0907 178.929 67.6707 178.929H67.1707V167.489C66.7307 167.839 66.2907 168.119 65.8207 168.399C65.7907 169.879 64.2807 170.789 62.8607 169.599C62.6407 168.059 61.8207 166.319 60.9707 164.969V177.919C60.9707 178.139 59.8407 178.989 58.1307 178.989H57.5007V166.729C56.3007 167.739 55.0407 168.679 53.7507 169.439L53.4707 169.159C56.6807 165.949 59.7207 161.539 61.0107 157.629H54.3907L54.0007 156.429H60.7707H64.9307C64.9307 156.429 64.9407 157.089 64.4507 158.069C63.6307 159.769 62.4007 161.569 60.9507 163.239V164.089C61.3907 164.249 61.7707 164.369 62.1507 164.529C62.8407 163.459 64.0107 161.629 64.5807 160.119C64.5807 160.119 66.2807 161.479 66.9207 161.999C65.4407 163.449 64.1407 164.409 63.0707 164.949C64.5807 165.739 65.3407 166.679 65.6507 167.529C68.4507 163.939 70.4107 159.019 71.0707 155.489L75.3207 156.979ZM56.7007 149.709C65.3307 150.689 62.1207 157.109 58.7507 154.659C58.5007 152.959 57.4607 151.069 56.4507 149.899L56.7007 149.709ZM65.3007 158.749C66.6907 156.539 68.0707 153.019 68.8607 149.609C68.8607 149.609 71.9007 150.729 72.8007 151.259C70.5507 155.309 68.2307 157.429 65.6807 159.029L65.3007 158.749ZM79.8807 166.949C77.8007 164.679 75.6407 161.369 74.4707 158.659C73.2407 161.239 70.4907 164.739 67.9707 166.969L70.7307 166.939H76.2407L79.8807 166.949ZM76.5207 175.169V168.179H70.5607V175.169H76.5207ZM75.3207 149.799C85.1207 153.049 82.3107 160.169 78.8207 157.549C78.3207 154.999 76.5807 152.039 75.0107 149.989L75.3207 149.799Z" fill="white"/>
<path d="M115.231 162.91L115.201 164.08H106.161V168.19L112.981 168.18C112.981 168.18 113.001 169.31 113.001 169.81V177.69C112.971 177.94 111.201 178.7 109.981 178.7H109.351V176.65H98.9506V177.72C98.9506 178.07 97.3706 178.85 95.9306 178.85H95.4306V168.2L102.521 168.19V164.08H94.3006C93.8906 169.31 92.4406 174.97 87.4606 179.1L87.1406 178.88C90.3906 172.99 90.6706 165.61 90.6706 159.22V151.24L95.0206 151.25H109.421L113.541 151.24C113.541 151.24 113.511 152.46 113.511 153.07V159.18C113.451 159.37 111.591 160.03 110.391 160.03H109.731V158.23H94.4506V159.21C94.4506 160.44 94.4206 161.52 94.3606 162.87H102.521V158.73L106.171 159.11C106.141 159.11 106.151 162.87 106.181 162.87L115.231 162.91ZM94.4506 152.45V157.02H109.731V152.45H94.4506ZM98.9506 169.42V175.45H109.351V169.42H98.9506Z" fill="white"/>
<path d="M39.98 25.2098H0V29.6398H39.98V25.2098ZM50.87 29.6398H76.43C76.43 31.8998 76.43 33.7998 76.43 35.9898C76.43 57.3098 76.43 74.7298 76.43 96.0498C76.43 99.2398 76.43 102.44 76.42 105.63C76.41 108.06 76.16 110.48 75.65 112.85C74.61 117.67 72.58 122.03 69.54 125.92C69.12 126.46 68.7 127.01 68.28 127.56C68.87 128.28 69.44 128.96 70.2 129.51C70.57 129.24 70.87 129.02 71.17 128.81C72.98 127.6 74.73 126.31 76.37 124.87C78.87 122.68 80.96 120.16 82.58 117.25C83.71 115.23 84.56 113.1 85.09 110.84C85.4 109.51 85.61 108.17 85.77 106.82C85.88 105.86 85.95 104.9 85.94 103.93C85.94 103.46 85.94 102.99 85.94 102.52C85.94 84.4198 85.94 70.2198 85.94 52.1198C85.94 44.4398 85.94 38.2698 85.94 29.6298H85.96V25.1998H50.86V29.6398H50.87ZM69.49 41.7298L45.6 41.6698V46.0998L59.08 46.1398C59.05 47.2098 57.77 90.2798 44.3 125.12L47.43 126.17C47.43 126.17 62.47 102.52 69.49 46.1698V41.7298ZM30.77 75.0598C30.77 75.6398 30.77 76.1998 30.77 76.7498C30.77 77.4098 30.77 78.0698 30.77 78.7298C30.77 79.3698 30.77 80.0098 30.77 80.6498C30.77 80.7498 30.77 80.7898 30.77 81.9398H11.63C11.63 79.8998 11.63 79.1198 11.63 78.5898L2.24 75.0698C2.24 75.6498 2.24 76.2098 2.24 76.7598C2.24 77.4198 2.24 78.0798 2.25 78.7398C2.25 79.3798 2.25 80.0198 2.25 80.6598C2.25 81.2998 2.25 108.82 2.25 109.46C2.25 110.1 2.25 109.29 2.25 109.93C2.25 110.59 2.25 115.92 2.25 116.58H2.26C2.26 116.78 2.26 116.97 2.26 117.09C2.25 120.73 2.24 123.03 2.23 126.67C2.23 126.81 2.26 126.95 2.28 127.13C2.47 127.07 2.61 127.04 2.74 126.98C4.33 126.27 5.93 125.56 7.51 124.84C8.11 124.57 8.71 124.28 9.27 123.93C10.75 123.01 11.52 121.66 11.61 119.92C11.61 119.85 11.61 119.79 11.62 119.72H30.78C30.77 122.03 30.76 123.99 30.76 126.67C30.76 126.81 30.79 126.95 30.81 127.13C31 127.07 31.14 127.04 31.27 126.98C32.86 126.27 34.46 125.56 36.04 124.84C36.64 124.57 37.24 124.28 37.8 123.93C39.28 123.01 40.05 121.66 40.14 119.92C40.15 119.69 40.15 119.45 40.15 119.22C40.15 118.09 40.14 117.27 40.14 116.2H40.15C40.15 113.18 40.15 81.6398 40.15 78.6198L30.77 75.0598ZM11.63 115.27C11.63 111.08 11.63 96.0898 11.63 86.3598H30.78C30.78 94.8898 30.78 108.99 30.78 109.44C30.78 110.08 30.78 109.27 30.78 109.91C30.78 110.4 30.78 113.45 30.78 115.27H11.63ZM37.15 41.6398H3.07V46.0698H37.15V41.6398ZM3.07 64.3798H37.15V59.9498H3.07V64.3798ZM36.93 9.23977H2.85V13.6698H36.93V9.23977ZM83.71 9.20977C83.27 8.96977 82.8 8.73977 82.32 8.60977C81.35 8.34977 80.38 8.11977 79.4 7.93977C74.87 7.06977 70.25 7.09977 65.69 6.22977C62.15 5.54977 58.63 4.75977 55.18 3.57977C53.73 3.08977 52.31 2.49977 50.91 1.84977C50.56 1.68977 50.21 1.51977 49.86 1.34977C49.79 1.30977 49.67 1.23977 49.55 1.16977L49 2.20977C50.14 3.22977 51.33 4.18977 52.57 5.09977C56.18 7.73977 60.03 9.95977 64 11.9498C67.03 13.4598 70.13 14.8198 73.29 15.9798C75.51 16.7898 77.75 17.4898 80.05 17.9198C81.1 18.1198 82.14 18.1598 83.14 17.9398C85.16 17.4998 86.12 16.3498 86.37 14.6198C86.64 12.8598 85.65 10.2598 83.71 9.20977ZM242.38 39.5498C242.38 37.4698 242.38 35.6498 242.38 33.6598V29.2298H223.31V25.1798H213.75V29.2298H198.73V33.6598H213.75V49.5998L205.48 41.8598H199.3L213.51 55.1798L201.41 75.9298L213.25 75.9398L221.36 62.5298L229.44 70.0998H232.86C232.86 70.5898 232.86 71.0598 232.86 71.5198V75.9498H247.86V71.4998H242.38C242.38 62.6898 242.38 44.8798 242.38 39.5498ZM232.87 67.4998L223.32 58.5498V33.6598H232.87C232.87 40.9898 232.87 56.8698 232.87 67.4998ZM223.2 6.60977C223.2 6.88977 223.2 6.84977 223.2 6.80977C223.2 6.83977 223.2 6.86977 223.2 6.88977C223.2 7.45977 223.2 6.03977 223.2 6.60977ZM159.37 86.3498H228.26V81.9198H159.37V86.3498ZM223.19 9.10977C223.19 8.95977 223.2 8.80977 223.19 8.65977C223.18 8.10977 223.19 7.54977 223.19 6.99977C223.19 6.70977 223.19 6.75977 223.19 6.80977C223.19 6.27977 223.18 5.75977 223.18 5.22977C223.18 4.65977 223.18 4.08977 223.18 3.51977C222.97 3.43977 222.8 3.36977 222.62 3.30977C221.23 2.82977 219.83 2.37977 218.46 1.87977C216.93 1.31977 215.38 0.819766 213.9 0.00976562C213.79 0.249766 213.83 0.509766 213.83 0.749766C213.84 3.40977 213.85 3.28977 213.86 5.94977C213.86 7.17977 213.87 7.99977 213.87 9.11977H172.35C172.35 6.60977 172.35 6.72977 172.35 3.87977C172.35 3.75977 172.34 3.63977 172.33 3.49977C171.78 3.30977 171.26 3.11977 170.74 2.94977C168.21 2.12977 165.72 1.20977 163.27 0.149766C163.18 0.109766 163.08 0.109766 162.96 0.0797656C162.96 0.759766 162.96 1.39977 162.96 2.03977C162.96 2.69977 162.96 3.35977 162.97 4.01977C162.97 4.65977 162.97 5.29977 162.97 5.93977C162.97 6.57977 162.97 5.87977 162.97 6.51977C162.97 7.15977 162.97 6.34977 162.97 6.98977C162.97 7.64977 162.97 7.74977 162.97 8.40977C162.97 8.64977 162.97 8.87977 162.98 9.11977H138.06V13.5498H162.97C162.96 16.7198 162.95 18.9298 162.94 22.2798C162.94 22.4198 162.97 22.5598 162.99 22.7398C163.18 22.6798 163.32 22.6498 163.45 22.5898C165.04 21.8798 166.64 21.1698 168.22 20.4498C168.82 20.1798 169.42 19.8898 169.98 19.5398C171.46 18.6198 172.23 17.2698 172.32 15.5198C172.33 15.2898 172.33 15.0498 172.33 14.8198C172.33 14.1398 172.33 13.8598 172.33 13.5398H213.85C213.84 16.0298 213.84 18.5098 213.83 20.9998C213.83 21.5098 213.85 22.0198 213.7 22.5198C213.68 22.5798 213.71 22.6398 213.72 22.7898C213.89 22.7298 214.01 22.6998 214.13 22.6498C215.57 22.0098 217.01 21.3698 218.45 20.7398C219.23 20.3998 220 20.0298 220.72 19.5898C222.27 18.6298 223.1 17.2598 223.14 15.4298C223.16 14.6198 223.17 15.1498 223.18 14.3398C223.18 14.0798 223.18 13.8098 223.18 13.5498H248.07V9.10977H223.19ZM140.88 41.8498V46.2798H147.89C147.89 47.3998 147.89 48.4498 147.89 50.0098L140.95 56.6998H151.22L157.37 50.0098C157.37 48.3598 157.37 47.7398 157.37 46.2798H175.01C175.01 48.0298 175.01 49.4998 175.01 51.0898V55.5198H192.13V51.0898H184.53C184.53 50.0798 184.53 49.0198 184.53 47.6298C184.53 47.1598 184.53 46.7198 184.53 46.2898H192.13V41.8598H172.28C172.28 38.6098 172.28 38.5198 172.28 33.8398C172.28 33.7798 172.28 33.7198 172.28 33.6598H192.13V29.2298H172.28C172.28 27.9498 172.28 26.6298 172.28 25.1498H162.76C162.76 26.0498 162.76 27.0098 162.76 27.8698C162.76 28.3498 162.76 28.7998 162.76 29.2298H140.88V33.6598H162.76C162.76 36.2898 162.76 38.1998 162.76 41.8498H140.88ZM156.3 94.4298C154.94 94.4298 139.75 94.4398 138.39 94.4498C138.33 94.4498 138.26 94.4498 138.19 94.4398V99.2098H158.83C159.35 99.2098 159.87 99.2098 160.4 99.2098C160.65 99.2098 160.89 99.2098 161.14 99.2098H173.07C169.62 103.44 165.63 109.97 160.03 113.54C155.98 116.12 151.83 117.26 150.74 117.53L150.43 117.54L150.59 117.94C151.19 119.38 151.89 120.79 152.56 122.15L152.86 122.75C153.18 123.39 153.49 124.05 153.79 124.69C154.24 125.64 154.7 126.62 155.2 127.59L155.33 127.84L155.7 127.82C155.81 127.81 155.91 127.81 156 127.8C156.21 127.79 156.4 127.78 156.6 127.76C157.6 127.64 158.6 127.52 159.61 127.4C162.26 127.08 164.99 126.76 167.67 126.41C174.44 125.54 179.62 124.75 184.44 123.85C185.83 123.59 187.23 123.3 188.58 123.01C189.43 122.83 190.32 122.64 191.19 122.47C195.47 121.61 200 120.55 205.02 119.23C205.88 119 207.05 118.7 208.4 118.35C211.65 117.51 215.94 116.4 219.49 115.44C219.84 115.72 220.19 116 220.55 116.28C223.22 118.37 229.98 122.2 232.86 123.96C234.87 125.19 236.93 126.32 239.1 127.2C240.09 127.6 241.1 127.85 242.13 127.83C244.2 127.8 245.36 126.87 245.95 125.22C246.55 123.56 246.09 120.81 244.4 119.4C244.01 119.08 243.6 118.76 243.16 118.54C242.27 118.09 241.35 117.68 240.43 117.3C236.16 115.55 227.63 112.77 223.34 111.01C220.01 109.65 216.71 108.17 213.57 106.33C212.25 105.56 210.97 104.7 209.73 103.78C209.42 103.55 209.11 103.32 208.8 103.08C208.74 103.03 208.64 102.94 208.53 102.84L207.79 103.75C208.71 104.98 209.68 106.16 210.71 107.29C212.62 109.38 214.65 111.33 216.77 113.16C213.58 113.6 211.51 113.82 211.46 113.82C211.21 113.85 210.96 113.88 210.71 113.91C210.49 113.94 210.27 113.96 210.05 113.99C209.86 114.01 209.66 114.04 209.47 114.06C209.23 114.09 208.99 114.12 208.75 114.15C208.47 114.18 208.19 114.21 207.92 114.24C207.76 114.26 207.6 114.27 207.45 114.29L206.9 114.35C206.61 114.38 206.33 114.42 206.04 114.45C205.65 114.49 205.25 114.53 204.86 114.57L204.73 114.58C204.29 114.63 203.86 114.67 203.42 114.71C203.17 114.73 202.91 114.76 202.66 114.78C202.44 114.8 202.22 114.82 202 114.84C201.83 114.86 201.66 114.87 201.48 114.89C201.21 114.92 200.95 114.94 200.68 114.97C200.43 114.99 200.17 115.01 199.92 115.03C199.73 115.04 199.55 115.06 199.37 115.08C199.04 115.11 198.72 115.14 198.39 115.17L197.56 115.24C197.25 115.27 196.94 115.3 196.62 115.32C196.2 115.35 195.77 115.39 195.31 115.42C195.06 115.44 194.8 115.45 194.55 115.47C194.33 115.48 194.11 115.5 193.88 115.51C193.44 115.54 192.99 115.57 192.55 115.61C192.35 115.62 192.15 115.64 191.96 115.66C191.72 115.68 191.48 115.7 191.23 115.72C190.9 115.74 190.57 115.77 190.24 115.79L189.41 115.84C189.1 115.86 188.79 115.88 188.49 115.9L188.27 115.91C187.9 115.93 187.53 115.96 187.16 115.98C186.91 115.99 186.66 116.01 186.42 116.02C186.19 116.03 185.96 116.04 185.73 116.06C185.52 116.07 185.32 116.08 185.11 116.1C184.88 116.11 184.64 116.13 184.41 116.14C184.13 116.16 183.84 116.17 183.56 116.18L183.08 116.2C182.93 116.21 182.78 116.22 182.63 116.23L172.19 116.75C171.23 116.78 170.25 116.82 169.3 116.85C168.52 116.88 167.74 116.91 166.96 116.94C165.28 117 163.59 117.05 161.91 117.11C162.72 116.81 163.81 116.38 165.29 115.76C167.97 114.63 171.33 113.31 175.4 110.92C178.39 109.16 180.96 107.54 183.51 105.35C185.18 103.91 186.66 102.41 188.15 100.86C188.25 100.76 188.78 100.15 189.64 99.1798H195.91C196.4 99.1798 196.88 99.1798 197.37 99.1798H198.1C198.14 99.1798 198.18 99.1798 198.22 99.1798H203.31L203.39 99.1998C215.67 99.1998 236.35 99.1898 247.85 99.1898V94.3998C246.29 94.3998 235.55 94.3898 234.56 94.3998C208.49 94.4198 182.4 94.4298 156.3 94.4298ZM102.91 62.0398C104.35 59.0298 105.8 56.0098 107.21 52.9898C108.58 50.0598 110.04 47.1698 111.42 44.2498C112.12 42.7798 112.79 41.2898 113.42 39.7898C114.06 38.2798 114.81 36.7298 114.76 35.0598C114.65 31.1898 110.01 29.5398 106.74 30.8098C103.75 31.9698 103.63 35.0798 102.97 37.7398C102.35 40.2498 101.71 42.7598 101.11 45.2798C100.4 48.2198 99.71 51.1598 99.05 54.0998C98.3 57.4098 97.58 60.7298 96.85 64.0398C96.32 66.4198 95.73 68.7898 95.29 71.1798C94.93 73.1298 94.6 75.0898 94.58 77.0798C94.57 78.0398 94.69 78.9998 94.76 79.9498C94.84 80.9598 94.94 81.9598 95.07 82.9598C95.23 84.1898 95.44 85.4198 95.72 86.6398C96.25 88.9098 96.64 91.1998 97.1 93.4798C97.65 96.1898 98.2 98.8998 98.76 101.61C99.24 103.95 99.72 106.29 100.21 108.62C100.78 111.33 101.33 114.04 101.94 116.74C102.39 118.72 102.59 122.19 104.3 123.61C106.26 125.25 109 125.67 111.35 124.61C112.48 124.1 113.38 123.15 113.81 122.01C114.31 120.69 114.03 119.45 113.58 118.16C111.93 113.35 109.55 108.82 107.52 104.15C106.52 101.85 105.51 99.5598 104.49 97.2598C103.06 94.0598 101.62 90.8598 100.19 87.6598C99.59 86.3098 98.89 84.9598 98.49 83.5798C98.05 82.0598 97.78 80.4998 97.66 78.9598C97.4 75.7798 97.9 72.6398 99.28 69.6098C100.44 67.0798 101.7 64.5698 102.91 62.0398ZM140.88 71.4998L142.22 75.9298H192.13V71.4998H172.28C172.28 69.1498 172.28 68.3498 172.28 64.4198H192.13V59.9898H172.28C172.28 58.0498 172.28 56.1098 172.28 53.7298H162.76C162.76 54.7798 162.76 55.6398 162.76 56.6298C162.76 57.8898 162.76 58.9998 162.76 59.9898H140.88V64.4198H162.76C162.76 66.6398 162.76 68.5698 162.76 71.4998H140.88Z" fill="white"/>
</g>
<defs>
<clipPath id="clip0_405_2238">
<rect width="248.07" height="179.56" fill="white"/>
</clipPath>
</defs>
</svg>
