<svg width="36" height="53" viewBox="0 0 52 76" fill="none" xmlns="http://www.w3.org/2000/svg">
<path d="M26.0007 0C40.3383 0 52.0015 11.8585 52.0015 26.4364C52.0015 33.3635 47.7606 43.7533 39.3959 57.3184C33.2199 67.3349 26.9577 75.4763 26.8959 75.5572C26.6798 75.8364 26.35 76 26.0007 76H25.9974C25.6464 76 25.3166 75.8348 25.1021 75.5523C25.0404 75.4697 18.7798 67.2474 12.6038 57.1912C4.24069 43.5716 -0.000160217 33.223 -0.000160217 26.4347C0.00146484 11.8585 11.6646 0 26.0007 0ZM26.0007 39.1837C32.9144 39.1837 38.538 33.4643 38.538 26.4364C38.538 19.4085 32.9128 13.6874 26.0007 13.6874C19.0886 13.6874 13.4617 19.4068 13.4617 26.4364C13.4617 33.4659 19.0869 39.1837 26.0007 39.1837Z" fill="#295747"/>
</svg>
