<svg width="256" height="30" fill="none" xmlns="http://www.w3.org/2000/svg"><path d="M170.738 11.262c0 .952.007 1.144.044 2.104.118.007.236.007.281.007.649 0 1.764-.067 2.273-.126-.03.163-.044.236-.044.384 0 .148.007.221.044.399a82.637 82.637 0 0 0-1.912-.045c-.62 0-1.608.023-2.073.045a57.88 57.88 0 0 0 .103-3.676c0-1.453-.03-2.775-.096-3.535.524.045 1.173.067 2.052.067.664 0 1.461-.03 1.941-.067a2.09 2.09 0 0 0-.045.406c0 .126.008.214.045.399a30.261 30.261 0 0 0-2.554-.118v.125l-.022.472c-.03.76-.044 1.122-.044 1.823.125.008.243.008.28.008.664 0 1.498-.03 2.199-.096-.044.17-.051.258-.051.406 0 .14.007.221.051.376a36.736 36.736 0 0 0-2.243-.088h-.236c-.008.088-.008.125-.008.147v.576l.015.007zm3.794-4.443c.339.03.524.045.789.045.266 0 .45-.008.76-.045.554 1.676 1.004 2.886 2.089 5.594.59-1.365 1.911-4.856 2.125-5.594.207.03.31.045.458.045.14 0 .236-.008.435-.045l-.096.222c-1.431 3.254-2.612 6.125-2.893 6.981a2.045 2.045 0 0 0-.398-.044c-.14 0-.236.007-.406.044-.48-1.335-.959-2.575-1.919-4.9l-.457-1.13-.406-.98-.089-.193h.008zm9.365 4.443c0 .952.007 1.144.044 2.104.118.007.236.007.28.007.65 0 1.764-.067 2.274-.126-.03.163-.045.236-.045.384 0 .148.008.221.045.399a82.76 82.76 0 0 0-1.912-.045c-.62 0-1.609.023-2.074.045.067-.974.104-2.295.104-3.676 0-1.453-.03-2.775-.096-3.535.524.045 1.173.067 2.051.067.665 0 1.462-.03 1.941-.067-.029.17-.044.266-.044.406 0 .126.007.214.044.399a30.235 30.235 0 0 0-2.553-.118v.125l-.022.472c-.03.76-.045 1.122-.045 1.823.126.008.244.008.281.008.664 0 1.498-.03 2.199-.096-.044.17-.052.258-.052.406 0 .14.008.221.052.376a36.736 36.736 0 0 0-2.243-.088h-.237c-.007.088-.007.125-.007.147v.576l.015.007zm5.682-.62v.318c0 1.107.052 2.295.126 3.062a7.809 7.809 0 0 0-.782-.044c-.274 0-.414.007-.702.044.074-.96.104-2.206.104-4.044 0-1.336-.03-2.435-.104-3.159.362.03.569.045.893.045.192 0 .48-.008.834-.023.362-.007.665-.022.864-.022.694 0 1.166.104 1.528.355.428.295.686.797.686 1.365 0 .664-.332 1.24-.908 1.58-.258.147-.531.258-.974.354.052.088.258.376.62.885a79.857 79.857 0 0 0 1.911 2.672c-.428-.03-.642-.045-.9-.045-.281 0-.435.008-.768.045-.738-1.196-1.771-2.775-2.221-3.38h-.214l.007-.008zm0-.428c.185.022.288.022.406.022 1.033 0 1.676-.597 1.676-1.572 0-.841-.51-1.343-1.388-1.343-.096 0-.266.008-.642.044-.022.355-.052 1.69-.052 2.672v.185-.008zm6.318-3.35c.258 0 .398-.008.664-.045-.089 1.093-.111 1.89-.111 3.727 0 1.07.022 2.214.052 2.842.221.007.28.007.362.007.693 0 1.572-.052 2.265-.14-.044.199-.051.295-.051.428 0 .118.007.192.051.34a86.515 86.515 0 0 0-2.059-.045c-.361 0-1.358.022-1.992.044.073-.782.103-2.051.103-3.778 0-1.727-.022-2.288-.103-3.425.361.03.553.045.819.045zm5.409 0c.266 0 .414-.008.694-.045a46.65 46.65 0 0 0-.111 3.535c0 1.646.045 2.99.111 3.676a7.587 7.587 0 0 0-.738-.045 5.91 5.91 0 0 0-.745.045c.073-.783.118-2.178.118-3.823 0-1.484-.045-2.605-.118-3.38.339.03.524.044.789.044v-.007zm2.045-.045c.339.03.524.045.789.045.266 0 .451-.008.76-.045.554 1.676 1.004 2.886 2.089 5.594.59-1.365 1.911-4.856 2.125-5.594.2.03.31.045.458.045.14 0 .236-.008.435-.045l-.095.222c-1.432 3.254-2.613 6.125-2.893 6.981a2.062 2.062 0 0 0-.399-.044c-.14 0-.236.007-.406.044-.48-1.335-.959-2.575-1.919-4.9l-.457-1.13-.406-.98-.089-.193h.008zm8.789.045c.266 0 .414-.008.694-.045-.074.96-.103 2.111-.103 3.535 0 1.646.044 2.99.103 3.676a7.587 7.587 0 0 0-.738-.045 5.91 5.91 0 0 0-.745.045c.073-.783.118-2.178.118-3.823 0-1.484-.045-2.605-.118-3.38.339.03.524.044.789.044v-.007zm3.528 1.867c-.007.45-.007.834-.007 1.38 0 1.918.029 2.996.125 3.918a2.869 2.869 0 0 0-.458-.044 1.8 1.8 0 0 0-.428.045c.074-1.012.141-3.137.141-4.93 0-.96-.023-1.75-.067-2.325.185.007.266.022.399.022.118 0 .169 0 .302-.022.414.48.642.723 2.864 3.085l.93 1.004.878.937.192.206v-1.94c0-1.3-.022-2.23-.074-3.233.214.03.31.044.428.044s.214-.007.435-.044c-.14 1.601-.184 2.849-.184 6.022v.34c0 .413 0 .568.007.893-.147-.008-.221-.023-.317-.023s-.148 0-.258.023c-1.129-1.358-2.177-2.51-3.875-4.28l-.834-.886-.192-.185-.007-.007zm13.749-.399c-.398-.701-1.203-1.122-2.177-1.122-1.727 0-2.819 1.262-2.819 3.292s1.055 3.136 2.745 3.136a3.62 3.62 0 0 0 1.432-.28c.029-.473.044-.79.044-1.188 0-.554-.022-.908-.074-1.432.266.044.428.052.672.052.243 0 .406-.008.716-.052-.067.546-.089 1.07-.089 1.845 0 .51.008.745.045 1.077-1.174.362-1.956.502-2.893.502-2.51 0-4.06-1.387-4.06-3.653 0-2.384 1.654-3.852 4.333-3.852 1.011 0 1.741.17 2.553.612-.184.473-.243.716-.295 1.048h-.126l-.007.015zm-53.852 14.812l-.222.79c-.686.398-1.358.568-2.229.568-2.413 0-3.926-1.403-3.926-3.639 0-2.369 1.58-3.867 4.089-3.867.878 0 1.623.17 2.295.502-.118.288-.192.62-.266 1.085h-.118c-.258-.62-1.033-1.033-1.919-1.033-1.594 0-2.612 1.269-2.612 3.254 0 1.986 1.026 3.159 2.635 3.159.819 0 1.579-.303 2.221-.878l.066.051-.014.008zm9.018-2.347c0 1.092-.384 2.059-1.092 2.708-.709.665-1.675.997-2.915.997-2.487 0-4-1.417-4-3.757s1.513-3.749 3.992-3.749c2.48 0 4.015 1.41 4.015 3.8zm-6.539-.044c0 2.051.93 3.247 2.539 3.247s2.539-1.196 2.539-3.203c0-2.008-.915-3.3-2.554-3.3-1.638 0-2.531 1.197-2.531 3.256h.007zm9.048-1.698c-.007.45-.007.834-.007 1.38 0 1.92.029 2.997.125 3.92a2.868 2.868 0 0 0-.457-.045 1.79 1.79 0 0 0-.428.044c.074-1.01.14-3.136.14-4.93 0-.96-.022-1.749-.066-2.324.184.007.265.022.398.022.118 0 .17 0 .303-.022.413.48.642.723 2.863 3.084l.93 1.004.878.937.192.207v-1.94a59.06 59.06 0 0 0-.074-3.233c.214.03.31.044.428.044s.214-.007.436-.044c-.14 1.601-.185 2.848-.185 6.022v.34c0 .413 0 .567.008.892-.148-.007-.222-.022-.318-.022s-.147 0-.258.022c-1.129-1.358-2.177-2.509-3.875-4.28l-.834-.886-.191-.184-.008-.008zm11.248-.509c-.214-.62-.746-1.011-1.388-1.011-.686 0-1.195.457-1.195 1.077 0 .34.169.65.472.864.236.184.339.236 1.129.605.642.303.93.48 1.188.723.34.332.524.79.524 1.3 0 .641-.28 1.268-.745 1.704-.495.472-1.122.686-1.978.686-.716 0-1.203-.118-1.889-.45.103-.361.192-.981.214-1.432h.147c.266.834.908 1.358 1.69 1.358.783 0 1.358-.553 1.358-1.313 0-.34-.118-.62-.354-.82-.243-.213-.339-.265-1.203-.686-1.24-.583-1.675-1.122-1.675-2.03 0-1.284.981-2.132 2.465-2.132.649 0 1.195.162 1.749.502a9.516 9.516 0 0 0-.376 1.048h-.126l-.007.007zm5.07 2.081c0 1.742.044 3.107.118 3.727-.384-.03-.554-.044-.768-.044-.214 0-.376.008-.723.044.066-.472.118-2.369.118-4.059 0-.797-.007-1.439-.052-2.457-1.055.022-1.432.044-2.059.125.03-.162.044-.236.044-.384 0-.17-.007-.265-.044-.435 1.048.067 1.58.074 2.687.074 1.107 0 1.697-.008 2.767-.074a2.057 2.057 0 0 0-.044.413c0 .148.007.237.044.406-.48-.074-1.291-.125-2.015-.125a58.317 58.317 0 0 0-.066 2.79h-.007zm4.738.34v.317c0 1.107.051 2.296.125 3.063a7.809 7.809 0 0 0-.782-.044 4.58 4.58 0 0 0-.701.044c.073-.96.103-2.207.103-4.044 0-1.336-.03-2.436-.103-3.159.361.03.568.044.893.044.192 0 .479-.007.834-.022.361-.007.664-.022.863-.022.694 0 1.166.103 1.528.354.428.296.686.797.686 1.366 0 .664-.332 1.24-.908 1.579-.258.147-.531.258-.974.354.052.089.258.377.62.886a78.027 78.027 0 0 0 1.912 2.671c-.429-.03-.643-.044-.901-.044-.28 0-.435.008-.767.044-.738-1.195-1.772-2.774-2.222-3.38h-.214l.008-.007zm0-.428c.184.022.287.022.405.022 1.034 0 1.676-.598 1.676-1.572 0-.841-.509-1.343-1.388-1.343-.096 0-.265.007-.642.044-.022.354-.051 1.69-.051 2.672v.184-.007zm5.321.14c.007-.457.022-.863.022-1.151 0-.974-.03-1.727-.089-2.384.34.03.524.044.768.044.243 0 .413-.007.716-.044a44.043 44.043 0 0 0-.14 3.734c0 1.248.095 1.764.435 2.23.362.508.893.76 1.609.76.989 0 1.719-.51 1.963-1.38.147-.525.192-1.056.192-2.636 0-1.32-.008-1.748-.067-2.708.2.03.303.044.451.044.162 0 .28-.007.479-.044-.051.546-.118 1.963-.147 3.365-.022 1.764-.141 2.325-.606 2.915-.546.702-1.416 1.078-2.509 1.078-1.195 0-2.169-.406-2.649-1.107-.31-.472-.45-1.033-.45-1.897v-.812l.022-.007zm14.398 2.465l-.221.79c-.687.398-1.358.568-2.229.568-2.413 0-3.926-1.403-3.926-3.639 0-2.369 1.579-3.867 4.088-3.867.879 0 1.624.17 2.296.502-.118.288-.192.62-.266 1.085h-.118c-.258-.62-1.033-1.033-1.919-1.033-1.594 0-2.613 1.269-2.613 3.254 0 1.986 1.026 3.159 2.635 3.159.819 0 1.58-.303 2.222-.878l.066.051-.015.008zm4.443-2.517c0 1.742.044 3.107.118 3.727-.384-.03-.553-.044-.767-.044-.214 0-.377.008-.724.044.067-.472.118-2.369.118-4.059 0-.797-.007-1.439-.051-2.457-1.056.022-1.432.044-2.059.125.029-.162.044-.236.044-.384 0-.17-.007-.265-.044-.435 1.048.067 1.579.074 2.686.074s1.697-.008 2.768-.074a1.99 1.99 0 0 0-.045.413c0 .148.008.237.045.406-.48-.074-1.292-.125-2.015-.125a58.308 58.308 0 0 0-.067 2.79h-.007zm4.17-3.439a4.5 4.5 0 0 0 .694-.044c-.074.96-.111 2.11-.111 3.535 0 1.646.044 2.989.111 3.675a7.636 7.636 0 0 0-.738-.044c-.237 0-.414.008-.746.044.074-.782.118-2.177.118-3.822 0-1.484-.044-2.606-.118-3.38.34.029.524.044.79.044v-.008zm10.45 3.609c0 1.092-.384 2.059-1.092 2.708-.709.665-1.676.997-2.916.997-2.487 0-4-1.417-4-3.757s1.513-3.749 3.993-3.749 4.015 1.41 4.015 3.8zm-6.546-.044c0 2.051.93 3.247 2.538 3.247 1.609 0 2.539-1.196 2.539-3.203 0-2.008-.915-3.3-2.553-3.3-1.639 0-2.532 1.197-2.532 3.256h.008zm9.055-1.698c-.007.45-.007.834-.007 1.38 0 1.92.029 2.997.125 3.92a2.868 2.868 0 0 0-.457-.045 1.79 1.79 0 0 0-.428.044c.073-1.01.14-3.136.14-4.93 0-.96-.022-1.749-.067-2.324.185.007.266.022.399.022.118 0 .17 0 .303-.022.413.48.642.723 2.863 3.084l.93 1.004.878.937.192.207v-1.94a59.06 59.06 0 0 0-.074-3.233c.214.03.31.044.428.044s.214-.007.436-.044c-.141 1.601-.185 2.848-.185 6.022v.34c0 .413 0 .567.008.892-.148-.007-.222-.022-.318-.022s-.147 0-.258.022c-1.129-1.358-2.177-2.509-3.875-4.28l-.834-.886-.191-.184-.008-.008z" fill="#8A8B8B"/><path d="M47.026 13.291c-.03.517-.067.665-.155 1.056-1.13 4.066-3.58 7.845-8.436 10l-.199-.296c3.24-2.428 5.004-5.955 5.764-9.808h-4.812l-.384-.96h8.222v.008zm11.911-1.395s-.192.2-.524.45c-1.498 1.152-2.686 1.83-4.937 2.908 2.081 3.307 4.804 5.056 7.771 6.082 0 0-1.587 1.793-2.708 2.937-3.823-2.546-5.801-5.838-7.048-12.68v11.374c0 2.03-2.089 3.003-3.963 2.243a9.898 9.898 0 0 1-2.746-1.705l.11-.413c.053.089 2.57.443 3.16.155.406-.2.501-.679.501-1.048V10.051h-5.697l-.384-.93h9.026v1.204c.391 1.72.96 3.166 1.668 4.413 1.52-1.742 2.118-3.3 2.93-4.82l2.856 1.979h-.015zM45.601 3.461c9.83-.391 8.333 5.513 5.513 4.362-.811-1.078-2.893-2.871-5.586-4.067l.073-.295zM80.93 9.269s-.163.288-.362.686c1.425 2.259 4.34 4.259 6.768 5.284 0 0-1.137 1.941-1.646 2.85-.148-.126-1.085-.953-1.085-.953v8.354c-.022.17-1.373.738-2.258.738h-.487V24.34h-4.635v1.151c0 .244-1.151.834-2.258.834h-.391v-8.9c-.34.273-.687.487-1.056.709-.022 1.15-1.203 1.86-2.302.93-.17-1.204-.812-2.547-1.469-3.602v10.074c0 .17-.886.834-2.207.834h-.487v-9.535c-.93.782-1.911 1.52-2.915 2.11l-.221-.221c2.502-2.502 4.863-5.934 5.867-8.974h-5.151l-.303-.93h8.51s.007.516-.37 1.277c-.634 1.32-1.594 2.723-2.723 4.022v.664c.34.125.635.221.93.347.539-.834 1.446-2.258 1.89-3.432 0 0 1.328 1.063 1.822 1.461-1.151 1.13-2.162 1.875-2.996 2.296 1.173.612 1.764 1.35 2.007 2.007 2.185-2.797 3.705-6.62 4.214-9.365l3.306 1.173h.008zm-14.487-5.66c6.716.76 4.214 5.763 1.594 3.852-.2-1.321-1.004-2.797-1.794-3.705l.2-.148zm6.693 7.033c1.078-1.72 2.155-4.465 2.768-7.107 0 0 2.362.87 3.063 1.284-1.75 3.151-3.558 4.797-5.543 6.051l-.295-.22.007-.008zm11.344 6.376c-1.617-1.764-3.3-4.347-4.207-6.45-.96 2.007-3.1 4.73-5.063 6.472l2.148-.022h7.122zm-2.613 6.399v-5.44h-4.635v5.44h4.635zm-.93-19.735c7.624 2.524 5.44 8.067 2.723 6.03-.39-1.985-1.741-4.288-2.966-5.882l.243-.148zm31.048 10.2l-.022.915h-7.033v3.195h5.306s.015.871.015 1.262v6.126c-.022.2-1.395.782-2.354.782h-.487v-1.594h-8.089v.834c0 .273-1.225.886-2.354.886h-.391V18h5.513v-3.203H95.69c-.317 4.066-1.446 8.472-5.321 11.683l-.243-.17c2.523-4.583 2.745-10.325 2.745-15.3V4.805h17.793s-.022.945-.022 1.425v4.752c-.052.148-1.498.665-2.428.665h-.517V10.25H95.808v.76c0 .96-.022 1.8-.074 2.849h6.347v-3.218l2.842.295s-.015 2.923 0 2.923l7.055.022h.007zm-16.17-8.14v3.557h11.89V5.74h-11.89zm3.506 13.202v4.687h8.089v-4.687h-8.089zm50.886-9.822h-9.668l-.281-.96h9.949v.96zm-.967 4.944c2.059-2.133 2.302-4.797 2.302-6.952l-.022-1.978 7.926.045-.014.93v4.044c0 .243.074.34.391.34 0 0 .111.044.819.022.709-.023 1.218-.133 1.218-.133l.45 2.118s-.694.14-1.779.28-1.586.162-1.586.162c-1.838 0-2.059-.516-2.059-2.11v-4.73h-2.768v1.003c0 2.007-.421 5.306-4.539 7.218l-.332-.266-.007.007zm.103 1.358h-7.793l-.281-.96h8.074v.96zm.015-4.118l-.022.96h-7.764l-.28-.96h8.066zm-2.495 13.875V23.86h-2.767v1.468c0 .244-1.078.812-2.133.812h-.369l-.015-8.701h7.823l-.015 1.328v5.69c-.022.2-1.247.738-2.11.738h-.414v-.014zm-3.977-21.425c6.472.318 4.14 5.225 1.542 3.506-.17-1.225-.982-2.546-1.72-3.358l.17-.148h.008zm3.977 19.166v-4.56h-2.767v4.56h2.767zm13.993-7.033c-.856 2.081-2.037 3.897-3.601 5.469 1.793 1.003 3.896 1.668 6.132 2.11 0 0-1.328 1.528-2.354 2.694-2.206-.834-4.066-1.837-5.564-3.284-2.082 1.572-4.783 2.723-8.089 3.483l-.148-.317c2.871-1.129 5.226-2.65 7.012-4.56-1.174-1.573-2.06-3.528-2.62-6.06h-1.093l-.302-.96h11.114s-.162.584-.472 1.425h-.015zm-8.797-.465c.738 1.986 1.86 3.506 3.336 4.68a15.853 15.853 0 0 0 2.45-4.68h-5.786zm-29.188-1.18c-.369 2.501-.982 4.878-2.207 7.01 2.672 1.447 6.325 1.764 11.402 1.764 1.277 0 3.831 0 5.373-.022 0 0-.642 1.181-1.328 2.694h-4.266c-5.69 0-9.535-.59-12.236-2.967-1.152 1.425-2.694 2.694-4.805 3.653l-.169-.295a11.74 11.74 0 0 0 3.749-4.657c-1.13-1.498-2.008-3.505-2.694-6.103l.273-.148c.782 2.155 1.764 3.705 3.018 4.856.687-1.911 1.034-3.992 1.225-6.155h-1.579l-.745.886-1.941-1.358s.088-.162.42-.701c.886-1.646 2.111-4.362 2.768-6.081h-4.066l-.222-.709h7.461s-.339.82-.575 1.373c-.236.553-1.912 4.17-2.797 5.882l4.059-.015s-.03.428-.111 1.092h-.007zm14.383-4.237h-2.413v3.38c-.022.2-1.35.665-2.229.665h-.413v-.753h-2.184v2.258h5.033v.93h-5.033v2.303h6.125l.007.959h-6.132v2.2c0 .22-1.13.737-2.207.737h-.539V19.75h-4.922l-.281-.96h5.196v-2.302h-3.794l-.28-.93h4.066v-2.258h-3.498l-.302-.96h3.8v-2.17h-5.313l-.281-.959h5.587V7.063h-3.742l-.302-.93h4.044V3.439l2.745.229V6.14h4.842l-.015 1.13v2.036h2.406v.709l.029-.008zm-7.247-.797h2.185V7.063h-2.185V9.21zm2.177.96H130v2.17h2.184v-2.17z" fill="#45544F"/><g clip-path="url(#clip0_2003_280)" fill="#AE925C"><path d="M10.98 11.51H0l.708 1.441h5.496v9.766s-.076 4.797-.523 7.748a.2.2 0 0 0 .284.21c4.251-2.06 5.215-4.32 5.215-7.958V11.712a.2.2 0 0 0-.2-.2v-.001zm14.727-8.47v19.677s-.075 4.797-.523 7.748a.2.2 0 0 0 .285.21c4.25-2.06 5.214-4.32 5.214-7.958V3.04h-4.976zM12.55 1.41h10.486V0H11.84l.709 1.41z"/><path d="M20.578 5.755H9.598l.71 1.441h5.495v15.52s-.076 4.798-.523 7.749a.2.2 0 0 0 .284.209c4.251-2.06 5.215-4.32 5.215-7.957V5.955a.2.2 0 0 0-.2-.2z"/></g><defs><clipPath id="clip0_2003_280"><path fill="#fff" d="M0 0H30.682V30.693H0z"/></clipPath></defs></svg>