<svg width="339" height="68" fill="none" xmlns="http://www.w3.org/2000/svg"><path d="M103.89 20.95c-.05.95-.13 1.23-.29 1.95-2.08 7.52-6.62 14.5-15.59 18.49l-.36-.54c5.98-4.49 9.24-11.01 10.65-18.12h-8.9l-.71-1.77H103.88l.01-.01zm22-2.58s-.35.37-.97.83c-2.76 2.13-4.96 3.38-9.13 5.37 3.85 6.12 8.88 9.34 14.37 11.24 0 0-2.94 3.31-5.01 5.43-7.07-4.71-10.72-10.78-13.03-23.43v21.02c0 3.75-3.85 5.56-7.33 4.15-1.52-.62-3.4-1.68-5.07-3.15l.2-.77c.1.17 4.74.81 5.84.28.75-.37.93-1.25.93-1.93V14.97H96.16l-.71-1.72h16.69l-.01 2.22c.72 3.17 1.77 5.85 3.08 8.16 2.81-3.22 3.92-6.1 5.42-8.91l5.28 3.65h-.02zM101.25 2.78c18.17-.72 15.41 10.2 10.2 8.07-1.5-1.99-5.35-5.3-10.33-7.52l.14-.54-.01-.01zm70.341 10.73s-.3.53-.67 1.27c2.63 4.17 8.02 7.87 12.51 9.77 0 0-2.11 3.58-3.04 5.27-.27-.23-2-1.75-2-1.75V43.51c-.05.32-2.54 1.36-4.17 1.36h-.91v-3.49h-8.56v2.13c0 .45-2.13 1.54-4.17 1.54h-.72V28.6c-.63.5-1.27.91-1.95 1.31-.05 2.13-2.22 3.44-4.26 1.72-.32-2.22-1.5-4.71-2.72-6.66v18.62c0 .32-1.63 1.54-4.08 1.54h-.91V27.5c-1.72 1.45-3.53 2.81-5.39 3.9l-.41-.41c4.62-4.62 8.99-10.96 10.85-16.58h-9.52l-.56-1.72h15.73s.02.95-.68 2.36c-1.18 2.45-2.95 5.03-5.03 7.43v1.22c.63.23 1.18.41 1.72.63 1-1.54 2.68-4.17 3.49-6.35 0 0 2.45 1.96 3.37 2.7-2.13 2.08-4 3.47-5.54 4.24 2.17 1.13 3.26 2.49 3.72 3.72 4.03-5.17 6.84-12.23 7.79-17.31l6.11 2.17v.01zm-26.78-10.46c12.42 1.4 7.79 10.65 2.95 7.11-.36-2.45-1.86-5.17-3.31-6.84l.36-.27zm12.37 13c1.99-3.17 3.99-8.25 5.12-13.14 0 0 4.37 1.62 5.67 2.37-3.23 5.82-6.57 8.87-10.24 11.18l-.54-.41h-.01zm20.96 11.79c-2.99-3.26-6.1-8.03-7.77-11.93-1.77 3.72-5.73 8.74-9.35 11.96l3.96-.04h13.17l-.01.01zm-4.82 11.82V29.6h-8.56v10.06h8.56zm-1.73-36.47c14.09 4.67 10.06 14.91 5.03 11.15-.72-3.67-3.22-7.93-5.48-10.87l.45-.27v-.01zm62.049 18.85l-.04 1.69h-13v5.9l9.81-.02s.02 1.63.02 2.34v11.33c-.05.36-2.58 1.45-4.35 1.45h-.91v-2.95h-14.95v1.54c0 .5-2.27 1.63-4.35 1.63h-.72V29.63h10.2v-5.92h-11.83c-.59 7.52-2.67 15.66-9.83 21.6l-.45-.32c4.67-8.47 5.07-19.08 5.07-28.27V5.26h32.89s-.04 1.75-.04 2.63v8.79c-.09.27-2.76 1.22-4.49 1.22h-.95v-2.58h-21.98v1.41c0 1.77-.05 3.32-.14 5.27h11.74v-5.95l5.25.54s-.03 5.41.01 5.41l13.04.04zm-29.9-15.05v6.57h21.98V6.99h-21.98zm6.48 24.41v8.67h14.95V31.4h-14.95zm104.22-18.15h-17.86l-.51-1.77h18.39v1.77h-.02zm-1.79 9.13c3.81-3.94 4.25-8.86 4.25-12.85l-.04-3.66 14.65.08-.02 1.72v7.48c0 .45.14.63.72.63 0 0 .2.09 1.51.04 1.31-.04 2.25-.24 2.25-.24l.83 3.91s-1.28.26-3.29.52c-2.01.27-2.94.29-2.94.29-3.4 0-3.81-.95-3.81-3.9V7.67h-5.12v1.86c0 3.72-.78 9.81-8.39 13.34l-.62-.49h.02zm.19 2.51h-14.4l-.51-1.77h14.92v1.77h-.01zm.04-7.61l-.04 1.77h-14.35l-.51-1.77h14.91-.01zm-4.63 25.64v-2.45h-5.12v2.72c0 .45-1.99 1.49-3.94 1.49h-.68l-.02-16.09h14.46l-.02 2.45v10.51c-.05.36-2.31 1.36-3.9 1.36h-.77l-.01.01zm-7.34-39.6c11.96.59 7.66 9.65 2.86 6.48-.32-2.27-1.81-4.71-3.17-6.21l.32-.27h-.01zm7.34 35.43v-8.43h-5.12v8.43h5.12zm25.88-13c-1.59 3.85-3.76 7.2-6.66 10.1 3.31 1.86 7.2 3.08 11.33 3.9 0 0-2.45 2.82-4.35 4.98-4.08-1.54-7.52-3.4-10.29-6.07-3.85 2.9-8.84 5.03-14.95 6.43l-.27-.59c5.3-2.08 9.65-4.89 12.96-8.43-2.17-2.9-3.81-6.52-4.85-11.19h-2.02l-.56-1.77 20.54.02s-.3 1.06-.88 2.61v.01zm-16.27-.86c1.36 3.67 3.44 6.48 6.16 8.65 1.99-2.63 3.49-5.48 4.53-8.65h-10.69zm-59.089-2.18c-.68 4.62-1.81 9.02-4.08 12.96 4.94 2.67 11.69 3.26 21.07 3.26 2.36 0 7.08 0 9.94-.05 0 0-1.18 2.19-2.46 4.98h-7.88c-10.51 0-17.63-1.09-22.61-5.48-2.13 2.63-4.98 4.98-8.88 6.75l-.32-.54a21.73 21.73 0 0 0 6.93-8.61c-2.08-2.76-3.72-6.48-4.98-11.28l.5-.27c1.45 3.99 3.26 6.84 5.57 8.97 1.27-3.53 1.9-7.39 2.27-11.37h-2.93l-1.38 1.63-3.58-2.51s.16-.3.77-1.29c1.63-3.04 3.9-8.07 5.12-11.24h-7.52l-.41-1.31h7.88l5.91-.02s-.62 1.54-1.06 2.56c-.44 1.02-3.53 7.7-5.17 10.87l7.5-.02s-.06.79-.21 2.02l.01-.01zm26.57-7.83h-4.47v6.25c-.05.36-2.49 1.22-4.12 1.22h-.77v-1.39h-4.03v4.17h9.31v1.72h-9.31v4.26h11.32l.01 1.77h-11.33v4.06c0 .41-2.08 1.36-4.08 1.36h-1v-5.42h-9.09l-.51-1.77h9.61v-4.26h-7.01l-.51-1.72h7.52v-4.17h-6.46l-.56-1.77h7.02v-4.02h-9.82l-.51-1.77h10.33V9.43h-6.92l-.56-1.72h7.48V2.73l5.07.42v4.56h8.95l-.03 2.08v3.76h4.45v1.31l.02.02zm-13.39-1.47h4.03V9.44h-4.03v3.97zm4.03 1.77h-4.03v4.02h4.03v-4.02z" fill="#45544F"/><path d="M91.85 63.26c0 1.55.02 1.86.07 3.43.19.02.38.02.45.02 1.06 0 2.88-.1 3.71-.21a2.913 2.913 0 0 0 0 1.27c-1.15-.03-2.51-.07-3.12-.07-1.01 0-2.63.04-3.38.07.1-1.58.17-3.75.17-5.99 0-2.37-.05-4.53-.16-5.77.85.07 1.92.1 3.35.1 1.08 0 2.39-.05 3.17-.1-.05.28-.07.44-.07.66 0 .21.02.35.07.64-1.31-.12-2.42-.17-4.16-.19l-.02.21-.02.77c-.05 1.24-.07 1.83-.07 2.98.21.02.4.02.45.02 1.08 0 2.44-.05 3.59-.16-.07.28-.09.42-.09.66 0 .23.02.37.09.61-.91-.07-2.7-.14-3.66-.14h-.38c-.02.14-.02.21-.02.24l.02.94.01.01zm6.19-7.25c.56.05.85.07 1.29.07.44 0 .73-.02 1.24-.07.91 2.74 1.64 4.71 3.42 9.13.96-2.23 3.12-7.93 3.47-9.13.33.05.51.07.75.07.23 0 .38-.02.71-.07l-.16.37c-2.33 5.31-4.27 10-4.72 11.4a3.19 3.19 0 0 0-.64-.07c-.22 0-.38.02-.66.07-.78-2.18-1.57-4.2-3.14-8l-.75-1.85-.66-1.6-.14-.31-.01-.01zm15.291 7.25c0 1.55.02 1.86.07 3.43.19.02.38.02.45.02 1.06 0 2.88-.1 3.71-.21a2.913 2.913 0 0 0 0 1.27c-1.15-.03-2.51-.07-3.12-.07-1.01 0-2.63.04-3.38.07.1-1.58.17-3.75.17-5.99 0-2.37-.05-4.53-.16-5.77.85.07 1.92.1 3.35.1 1.08 0 2.39-.05 3.17-.1-.05.28-.07.44-.07.66 0 .21.02.35.07.64-1.31-.12-2.42-.17-4.16-.19l-.02.21-.02.77c-.05 1.24-.07 1.83-.07 2.98.21.02.4.02.45.02 1.08 0 2.44-.05 3.59-.16-.07.28-.09.42-.09.66 0 .23.02.37.09.61-.91-.07-2.7-.14-3.66-.14h-.38c-.02.14-.02.21-.02.24l.02.94.01.01zm9.269-1.01v.52c0 1.81.09 3.75.21 5-.54-.05-.84-.07-1.27-.07-.43 0-.68.02-1.15.07.12-1.57.17-3.61.17-6.6 0-2.18-.05-3.97-.17-5.16.59.05.92.07 1.46.07.31 0 .78-.02 1.36-.03.59-.02 1.08-.04 1.41-.04 1.13 0 1.9.17 2.49.58.7.49 1.12 1.31 1.12 2.23 0 1.08-.54 2.02-1.48 2.58-.42.24-.87.42-1.59.57.09.14.42.61 1.01 1.45 1.39 2.02 2.51 3.56 3.12 4.36-.7-.05-1.04-.07-1.46-.07-.45 0-.71.02-1.25.07-1.2-1.95-2.89-4.53-3.62-5.52h-.35l-.01-.01zm0-.7c.3.04.47.04.66.04 1.69 0 2.74-.98 2.74-2.56 0-1.38-.84-2.2-2.27-2.2-.16 0-.44.02-1.05.07-.03.58-.09 2.75-.09 4.36v.3l.01-.01zm10.32-5.47c.42 0 .64-.02 1.08-.07-.14 1.78-.17 3.08-.17 6.08 0 1.74.04 3.61.09 4.64.37.02.45.02.59.02 1.13 0 2.56-.09 3.69-.23-.07.33-.09.49-.09.7 0 .19.02.31.09.56-1.01-.03-2.81-.07-3.36-.07-.59 0-2.21.04-3.26.07.12-1.27.17-3.35.17-6.17s-.03-3.73-.17-5.59c.59.05.91.07 1.34.07v-.01zm8.83 0c.44 0 .68-.02 1.13-.07-.12 1.57-.17 3.45-.17 5.77 0 2.68.07 4.88.17 5.99-.54-.05-.82-.07-1.2-.07s-.68.02-1.22.07c.12-1.27.19-3.55.19-6.24 0-2.42-.07-4.25-.19-5.52.56.05.85.07 1.29.07zm3.35-.07c.56.05.85.07 1.29.07.44 0 .73-.02 1.24-.07.91 2.74 1.64 4.71 3.42 9.13.96-2.23 3.12-7.93 3.47-9.13.33.05.51.07.75.07.23 0 .38-.02.71-.07l-.16.37c-2.34 5.31-4.27 10-4.72 11.4a3.19 3.19 0 0 0-.64-.07c-.22 0-.38.02-.66.07-.78-2.18-1.57-4.2-3.14-8l-.75-1.85-.66-1.6-.14-.31-.01-.01zm14.34.07c.44 0 .68-.02 1.13-.07-.12 1.57-.17 3.45-.17 5.77 0 2.68.07 4.88.17 5.99-.54-.05-.82-.07-1.2-.07s-.68.02-1.22.07c.12-1.27.19-3.55.19-6.24 0-2.42-.07-4.25-.19-5.52.56.05.85.07 1.29.07zm5.77 3.05c-.02.73-.02 1.36-.02 2.25 0 3.14.05 4.9.21 6.39-.33-.05-.5-.07-.75-.07-.26 0-.4.02-.7.07.12-1.66.23-5.12.23-8.05 0-1.57-.04-2.86-.1-3.8.3.02.44.03.64.03.19 0 .28 0 .49-.03.68.78 1.04 1.18 4.67 5.04l1.52 1.64 1.43 1.53.31.33v-3.17c0-2.13-.04-3.64-.12-5.28.35.05.5.07.7.07.2 0 .35-.02.71-.07-.23 2.61-.3 4.65-.3 9.83v.56c0 .68 0 .92.02 1.46-.24-.02-.37-.04-.52-.04-.15 0-.24 0-.42.04-1.85-2.21-3.55-4.1-6.33-6.99l-1.36-1.45-.31-.3v.01zm22.44-.65c-.64-1.15-1.97-1.83-3.55-1.83-2.82 0-4.6 2.06-4.6 5.37s1.73 5.12 4.48 5.12c.85 0 1.62-.16 2.33-.45.05-.77.07-1.29.07-1.93 0-.91-.04-1.48-.12-2.33.44.07.7.09 1.1.09.4 0 .66-.02 1.17-.09-.1.89-.14 1.74-.14 3.01 0 .84.02 1.22.07 1.76-1.92.59-3.19.82-4.72.82-4.09 0-6.62-2.26-6.62-5.96 0-3.89 2.7-6.29 7.07-6.29 1.66 0 2.84.28 4.17.99-.3.77-.4 1.17-.49 1.71l-.21.02-.01-.01zm19.081 7.32l-.37 1.29c-1.12.65-2.21.92-3.64.92-3.94 0-6.41-2.28-6.41-5.94 0-3.87 2.58-6.31 6.67-6.31 1.43 0 2.65.28 3.75.82-.19.47-.31 1.01-.44 1.78l-.19.02c-.42-1.03-1.69-1.71-3.14-1.71-2.6 0-4.27 2.07-4.27 5.31 0 3.24 1.67 5.16 4.3 5.16 1.34 0 2.58-.49 3.62-1.43l.1.09h.02zm14.719-3.83c0 1.78-.63 3.36-1.78 4.43-1.15 1.08-2.74 1.62-4.76 1.62-4.06 0-6.53-2.32-6.53-6.13s2.47-6.12 6.52-6.12c4.05 0 6.55 2.3 6.55 6.2zm-10.68-.07c0 3.35 1.52 5.3 4.15 5.3 2.63 0 4.15-1.95 4.15-5.23 0-3.28-1.5-5.38-4.17-5.38s-4.13 1.95-4.13 5.31zm14.77-2.77c-.02.73-.02 1.36-.02 2.25 0 3.14.05 4.9.21 6.39-.33-.05-.5-.07-.75-.07-.26 0-.4.02-.7.07.12-1.66.23-5.12.23-8.05 0-1.57-.04-2.86-.1-3.8.3.02.44.03.64.03.19 0 .28 0 .49-.03.68.78 1.04 1.18 4.67 5.04l1.52 1.64 1.43 1.53.31.33v-3.17c0-2.13-.04-3.64-.12-5.28.35.05.5.07.7.07.2 0 .35-.02.71-.07-.23 2.61-.3 4.65-.3 9.83v.56c0 .68 0 .92.02 1.46-.24-.02-.37-.04-.52-.04-.15 0-.24 0-.42.04-1.85-2.21-3.55-4.1-6.33-6.99l-1.36-1.45-.31-.3v.01zm18.37-.84c-.35-1.01-1.22-1.66-2.27-1.66-1.12 0-1.95.75-1.95 1.76 0 .56.28 1.06.77 1.41.38.3.56.38 1.85.99 1.05.49 1.52.78 1.93 1.18.56.54.85 1.29.85 2.13 0 1.05-.45 2.07-1.22 2.79-.8.77-1.83 1.12-3.22 1.12-1.17 0-1.97-.19-3.08-.73.17-.59.31-1.6.35-2.33h.24c.44 1.36 1.48 2.21 2.75 2.21s2.21-.91 2.21-2.14c0-.56-.19-1.01-.58-1.34-.4-.35-.56-.44-1.97-1.12-2.02-.96-2.74-1.83-2.74-3.31 0-2.09 1.6-3.49 4.03-3.49 1.06 0 1.95.26 2.86.82-.17.37-.38.98-.61 1.71h-.21.01zm8.28 3.4c0 2.84.07 5.07.19 6.08-.63-.05-.91-.07-1.25-.07-.34 0-.61.02-1.19.07.1-.77.19-3.87.19-6.62 0-1.31-.02-2.35-.09-4.01-1.72.03-2.33.07-3.36.21.05-.26.07-.38.07-.63 0-.28-.02-.44-.07-.71 1.71.1 2.58.12 4.39.12 1.81 0 2.77-.02 4.51-.12a3.227 3.227 0 0 0 0 1.34c-.78-.12-2.11-.21-3.29-.21-.07 1.55-.1 2.96-.1 4.55zm7.73.56v.52c0 1.81.09 3.75.21 5-.54-.05-.84-.07-1.27-.07-.43 0-.68.02-1.15.07.12-1.57.17-3.61.17-6.6 0-2.18-.05-3.97-.17-5.16.59.05.92.07 1.46.07.31 0 .78-.02 1.36-.03.59-.02 1.08-.04 1.41-.04 1.13 0 1.9.17 2.49.58.7.49 1.12 1.31 1.12 2.23 0 1.08-.54 2.02-1.48 2.58-.42.24-.87.42-1.59.57.09.14.42.61 1.01 1.45 1.39 2.02 2.51 3.56 3.12 4.36-.7-.05-1.05-.07-1.46-.07-.45 0-.71.02-1.25.07-1.2-1.95-2.89-4.53-3.62-5.52h-.35l-.01-.01zm0-.7c.3.04.47.04.66.04 1.69 0 2.74-.98 2.74-2.56 0-1.38-.84-2.2-2.27-2.2-.16 0-.44.02-1.05.07-.03.58-.09 2.75-.09 4.36v.3l.01-.01zm8.701.23c.02-.75.04-1.41.04-1.88 0-1.59-.05-2.82-.14-3.89.56.05.85.07 1.25.07s.68-.02 1.17-.07c-.14 1.64-.23 3.76-.23 6.1 0 2.04.16 2.88.71 3.64.59.84 1.46 1.24 2.63 1.24 1.62 0 2.81-.84 3.21-2.25.24-.85.31-1.73.31-4.3 0-2.16-.02-2.86-.1-4.43.33.05.49.07.73.07.26 0 .45-.02.78-.07-.09.89-.19 3.21-.24 5.49-.04 2.88-.23 3.8-.99 4.76-.89 1.15-2.32 1.76-4.1 1.76-1.95 0-3.54-.66-4.32-1.81-.5-.77-.73-1.69-.73-3.1l.02-1.32v-.01zm23.499 4.02l-.37 1.29c-1.12.65-2.21.92-3.64.92-3.94 0-6.41-2.28-6.41-5.94 0-3.87 2.58-6.31 6.67-6.31 1.43 0 2.65.28 3.75.82-.19.47-.31 1.01-.44 1.78l-.19.02c-.42-1.03-1.69-1.71-3.14-1.71-2.6 0-4.27 2.07-4.27 5.31 0 3.24 1.67 5.16 4.3 5.16 1.34 0 2.58-.49 3.62-1.43l.1.09h.02zm7.25-4.11c0 2.84.07 5.07.19 6.08-.63-.05-.91-.07-1.25-.07-.34 0-.61.02-1.19.07.1-.77.19-3.87.19-6.62 0-1.31-.02-2.35-.09-4.01-1.72.03-2.33.07-3.36.21.05-.26.07-.38.07-.63 0-.28-.02-.44-.07-.71 1.71.1 2.58.12 4.39.12 1.81 0 2.77-.02 4.51-.12a3.227 3.227 0 0 0 0 1.34c-.78-.12-2.11-.21-3.29-.21-.07 1.55-.1 2.96-.1 4.55zm6.81-5.61c.44 0 .68-.02 1.13-.07-.12 1.57-.17 3.45-.17 5.77 0 2.68.07 4.88.17 5.99-.54-.05-.82-.07-1.2-.07s-.68.02-1.22.07c.12-1.27.19-3.55.19-6.24 0-2.42-.07-4.25-.19-5.52.56.05.85.07 1.29.07zm17.06 5.89c0 1.78-.63 3.36-1.78 4.43-1.15 1.08-2.74 1.62-4.76 1.62-4.06 0-6.53-2.32-6.53-6.13s2.47-6.12 6.52-6.12c4.05 0 6.55 2.3 6.55 6.2zm-10.68-.07c0 3.35 1.52 5.3 4.15 5.3 2.63 0 4.15-1.95 4.15-5.23 0-3.28-1.5-5.38-4.17-5.38s-4.13 1.95-4.13 5.31zm14.77-2.77c-.02.73-.02 1.36-.02 2.25 0 3.14.05 4.9.21 6.39-.33-.05-.5-.07-.75-.07-.26 0-.4.02-.7.07.12-1.66.23-5.12.23-8.05 0-1.57-.04-2.86-.1-3.8.3.02.44.03.64.03.19 0 .28 0 .49-.03.68.78 1.04 1.18 4.67 5.04l1.52 1.64 1.43 1.53.31.33v-3.17c0-2.13-.04-3.64-.12-5.28.35.05.5.07.7.07.2 0 .35-.02.71-.07-.23 2.61-.3 4.65-.3 9.83v.56c0 .68 0 .92.02 1.46-.24-.02-.37-.04-.52-.04-.15 0-.24 0-.42.04-1.85-2.21-3.55-4.1-6.33-6.99l-1.36-1.45-.31-.3v.01z" fill="#8A8B8B"/><g clip-path="url(#clip0_2002_1239)" fill="#AE925C"><path d="M24.175 25.345H0l1.56 3.172h12.1v21.502s-.166 10.564-1.151 17.061a.44.44 0 0 0 .626.46c9.36-4.534 11.482-9.51 11.482-17.521V25.787a.439.439 0 0 0-.44-.44l-.002-.002zm32.43-18.653V50.02s-.167 10.564-1.152 17.061a.44.44 0 0 0 .626.46c9.36-4.534 11.482-9.51 11.482-17.521V6.692H56.605zM27.63 3.104h23.09V0H26.07l1.56 3.104z"/><path d="M21.135 12.672l1.56 3.172h12.1V50.02s-.166 10.564-1.151 17.061a.44.44 0 0 0 .627.46c9.36-4.534 11.481-9.51 11.481-17.521V13.112a.439.439 0 0 0-.44-.44H21.136z"/></g><defs><clipPath id="clip0_2002_1239"><path fill="#fff" d="M0 0H67.558V67.582H0z"/></clipPath></defs></svg>