<svg width="150" height="150" fill="none" xmlns="http://www.w3.org/2000/svg"><rect width="150" height="150" rx="75" fill="#fff" fill-opacity=".5"/><g clip-path="url(#clip0_2002_833)" stroke="#846D54" stroke-width="2" stroke-miterlimit="10"><path d="M71.463 59.342s3.753-15.364 20.407-13.597c16.953 1.791 17.37 19.006 13.605 26.087"/><path d="M73.905 53.968s-11.759-16.037-27.246-3.366C32.53 64.331 51.77 84.96 58.37 90.021l15.822 14.029 4.348-3.173"/><path d="M90.56 79.502s-1.216-4.953-9.055-4.508c-7.838.445-9.995 11.901-3.788 17.996a746.556 746.556 0 0 1 12.843 11.265s11.555-7.261 15.511-16.23c3.967-8.956-3.467-13.692-7.327-13.031-5.695 0-9.78 7.177-9.78 7.177m10.601 6.251s-2.37 4.773-6.04 7.983"/></g><defs><clipPath id="clip0_2002_833"><path fill="#fff" transform="translate(41 45)" d="M0 0H67V60H0z"/></clipPath></defs></svg>