<svg width="150" height="150" fill="none" xmlns="http://www.w3.org/2000/svg"><rect width="150" height="150" rx="75" fill="#fff" fill-opacity=".5"/><g clip-path="url(#clip0_2002_559)" stroke="#846D54" stroke-width="2" stroke-miterlimit="10"><path d="M101.334 85.278c-.627 13.87-13.254 21.867-26.834 21.677-13.594.19-26.208-7.807-26.834-21.677C47.209 70.85 75.192 41.935 74.5 41.809c-.692.126 27.291 29.042 26.834 43.469zM74.5 35v72.334"/><path d="M87.362 72.418L74.5 82.068l-12.862-9.65"/><path d="M94.282 81.576L74.5 96.42 54.717 81.576m26.978-18.115L74.5 68.868l-7.195-5.407m7.195 43.494s-.745 8.426-8.71 8.426"/></g><defs><clipPath id="clip0_2002_559"><path fill="#fff" transform="translate(47 35)" d="M0 0H55V81H0z"/></clipPath></defs></svg>